# xmcd
#
# Track frame offsets:
#	225
#	22795
#	48960
#	71569
#	84384
#	95129
#	105439
#	116830
#	127803
#	143948
#	167615
#	185207
#	201158
#	215828
#	231389
#	241683
#	255404
#	273205
#	286692
#	312947
#
# Disc length: 4480
#
# Revision: 2
# Processed by: cddbd v1.5.2PL0 Copyright (c) Steve Scherf et al.
# Submitted via: Broken Cross Disk Manager 3.94.2201
#
DISCID=1a117d14
DTITLE=B.B. King - Featuring Riley B. King
DYEAR=1995
DGENRE=Blues
TTITLE0=The Thrill Is Gone
TTITLE1=Guess Who
TTITLE2=Everyday I Have The Blues
TTITLE3=Please Love Me
TTITLE4=Recession Blues
TTITLE5=Don't Keep Me Waiting
TTITLE6=Tickel Britches
TTITLE7=Don't Break Your Promise
TTITLE8=It's My Own Fault Baby
TTITLE9=You've Done Lost You're Good Thing Now
TTITLE10=Evil Child
TTITLE11=Long Nights
TTITLE12=Mr. Pawnbroker
TTITLE13=Walkin' And Cryin'
TTITLE14=I'm Willing To Run All The Way
TTITLE15=You Upset Me Baby
TTITLE16=Rock Me Baby
TTITLE17=Blues At Midnight
TTITLE18=Watch Yourself
TTITLE19=Don't Answer The Door
EXTD=
EXTT0=
EXTT1=
EXTT2=
EXTT3=
EXTT4=
EXTT5=
EXTT6=
EXTT7=
EXTT8=
EXTT9=
EXTT10=
EXTT11=
EXTT12=
EXTT13=
EXTT14=
EXTT15=
EXTT16=
EXTT17=
EXTT18=
EXTT19=
PLAYORDER=
